<svg xmlns="http://www.w3.org/2000/svg" viewBox="0 0 900 420" fill="none">
  <defs>
    <marker id="arr" markerWidth="8" markerHeight="8" refX="7" refY="4" orient="auto"><path d="M0 0 L8 4 L0 8 Z" fill="#64748B"/></marker>
    <filter id="sh"><feDropShadow dx="0" dy="1" stdDeviation="2" flood-color="#1C2433" flood-opacity="0.08"/></filter>
  </defs>
  <text x="450" y="28" text-anchor="middle" font-family="Arial,sans-serif" font-size="16" font-weight="700" fill="#1C2433">Deployment Architecture</text>

  <rect x="24" y="52" width="852" height="72" rx="10" fill="#FAF9F6" stroke="#E8E4DD" filter="url(#sh)"/>
  <text x="40" y="76" font-family="Arial,sans-serif" font-size="11" font-weight="700" fill="#64748B">CLIENT TIER</text>
  <rect x="120" y="68" width="200" height="44" rx="8" fill="#FFF" stroke="#D97706"/>
  <text x="220" y="88" text-anchor="middle" font-family="Arial,sans-serif" font-size="11" font-weight="600" fill="#1C2433">React SPA (Vite)</text>
  <text x="220" y="104" text-anchor="middle" font-family="Arial,sans-serif" font-size="9" fill="#64748B">Port 5320 | User + Admin UI</text>
  <rect x="360" y="68" width="200" height="44" rx="8" fill="#FFF" stroke="#E8E4DD"/>
  <text x="460" y="96" text-anchor="middle" font-family="Arial,sans-serif" font-size="10" fill="#64748B">Browser localStorage (JWT)</text>
  <rect x="600" y="68" width="200" height="44" rx="8" fill="#FFF" stroke="#E8E4DD"/>
  <text x="700" y="96" text-anchor="middle" font-family="Arial,sans-serif" font-size="10" fill="#64748B">Tailwind + shadcn UI</text>

  <line x1="450" y1="124" x2="450" y2="148" stroke="#64748B" stroke-width="1.5" marker-end="url(#arr)"/>
  <text x="470" y="140" font-family="Arial,sans-serif" font-size="9" fill="#64748B">REST / JSON</text>

  <rect x="24" y="148" width="852" height="88" rx="10" fill="#FFF" stroke="#D97706" stroke-width="1.5" filter="url(#sh)"/>
  <text x="40" y="172" font-family="Arial,sans-serif" font-size="11" font-weight="700" fill="#D97706">APPLICATION TIER</text>
  <rect x="80" y="182" width="160" height="44" rx="6" fill="#FAF9F6" stroke="#E8E4DD"/>
  <text x="160" y="202" text-anchor="middle" font-family="Arial,sans-serif" font-size="10" font-weight="600" fill="#1C2433">FastAPI</text>
  <text x="160" y="218" text-anchor="middle" font-family="Arial,sans-serif" font-size="9" fill="#64748B">Port 8010</text>
  <rect x="260" y="182" width="140" height="44" rx="6" fill="#FAF9F6" stroke="#E8E4DD"/>
  <text x="330" y="208" text-anchor="middle" font-family="Arial,sans-serif" font-size="9" fill="#1C2433">Agent services</text>
  <rect x="420" y="182" width="140" height="44" rx="6" fill="#FAF9F6" stroke="#059669"/>
  <text x="490" y="208" text-anchor="middle" font-family="Arial,sans-serif" font-size="9" fill="#059669">MICE / LEAP</text>
  <rect x="580" y="182" width="140" height="44" rx="6" fill="#FAF9F6" stroke="#7C3AED"/>
  <text x="650" y="208" text-anchor="middle" font-family="Arial,sans-serif" font-size="9" fill="#7C3AED">Graph-RAG</text>
  <rect x="740" y="182" width="120" height="44" rx="6" fill="#FAF9F6" stroke="#E8E4DD"/>
  <text x="800" y="208" text-anchor="middle" font-family="Arial,sans-serif" font-size="9" fill="#1C2433">SAGD docgen</text>

  <line x1="200" y1="236" x2="200" y2="268" stroke="#64748B" marker-end="url(#arr)"/>
  <line x1="450" y1="236" x2="450" y2="268" stroke="#64748B" marker-end="url(#arr)"/>
  <line x1="700" y1="236" x2="700" y2="268" stroke="#64748B" marker-end="url(#arr)"/>

  <rect x="24" y="268" width="420" height="72" rx="10" fill="#FAF9F6" stroke="#E8E4DD" filter="url(#sh)"/>
  <text x="40" y="292" font-family="Arial,sans-serif" font-size="11" font-weight="700" fill="#64748B">DATA TIER</text>
  <rect x="80" y="300" width="100" height="32" rx="6" fill="#FFF" stroke="#E8E4DD"/>
  <text x="130" y="320" text-anchor="middle" font-family="Arial,sans-serif" font-size="9" fill="#1C2433">SQLite / Case DB</text>
  <rect x="200" y="300" width="100" height="32" rx="6" fill="#F5F3FF" stroke="#7C3AED"/>
  <text x="250" y="320" text-anchor="middle" font-family="Arial,sans-serif" font-size="9" fill="#7C3AED">Chroma vectors</text>
  <rect x="320" y="300" width="100" height="32" rx="6" fill="#FFF" stroke="#E8E4DD"/>
  <text x="370" y="320" text-anchor="middle" font-family="Arial,sans-serif" font-size="9" fill="#1C2433">File uploads</text>

  <rect x="456" y="268" width="420" height="72" rx="10" fill="#FAF9F6" stroke="#E8E4DD" filter="url(#sh)"/>
  <text x="472" y="292" font-family="Arial,sans-serif" font-size="11" font-weight="700" fill="#64748B">EXTERNAL SERVICES</text>
  <rect x="520" y="300" width="140" height="32" rx="6" fill="#FFF" stroke="#D97706"/>
  <text x="590" y="320" text-anchor="middle" font-family="Arial,sans-serif" font-size="9" fill="#D97706">Qwen-VL (OCR)</text>
  <rect x="680" y="300" width="140" height="32" rx="6" fill="#FFF" stroke="#D97706"/>
  <text x="750" y="320" text-anchor="middle" font-family="Arial,sans-serif" font-size="9" fill="#D97706">LLM API (chat)</text>

  <rect x="24" y="360" width="852" height="44" rx="8" fill="#FEF3C7" stroke="#D97706" stroke-opacity="0.35"/>
  <text x="450" y="387" text-anchor="middle" font-family="Arial,sans-serif" font-size="10" fill="#92400E">Demo stack: single-machine dev | Production: reverse proxy + managed DB optional</text>
</svg>
