<svg xmlns="http://www.w3.org/2000/svg" viewBox="0 0 560 300" fill="none">
  <text x="280" y="28" text-anchor="middle" font-family="Arial,sans-serif" font-size="16" font-weight="700" fill="#1C2433">Evaluation Metrics - Full Stack vs Baseline</text>
  <line x1="60" y1="240" x2="520" y2="240" stroke="#E8E4DD"/><line x1="60" y1="60" x2="60" y2="240" stroke="#E8E4DD"/>
  <g font-family="Arial,sans-serif">
    <text x="140" y="268" text-anchor="middle" font-size="10" fill="#64748B">Evidence</text>
    <rect x="108" y="168" width="24" height="72" rx="3" fill="#CBD5E1"/><rect x="136" y="120" width="24" height="120" rx="3" fill="#D97706"/>
    <text x="120" y="160" text-anchor="middle" font-size="9" fill="#64748B">62%</text><text x="148" y="112" text-anchor="middle" font-size="9" font-weight="600" fill="#92400E">89%</text>
    <text x="260" y="268" text-anchor="middle" font-size="10" fill="#64748B">Legal cite</text>
    <rect x="228" y="192" width="24" height="48" rx="3" fill="#CBD5E1"/><rect x="256" y="108" width="24" height="132" rx="3" fill="#7C3AED"/>
    <text x="240" y="184" text-anchor="middle" font-size="9" fill="#64748B">54%</text><text x="268" y="100" text-anchor="middle" font-size="9" font-weight="600" fill="#5B21B6">86%</text>
    <text x="380" y="268" text-anchor="middle" font-size="10" fill="#64748B">Doc draft</text>
    <rect x="348" y="180" width="24" height="60" rx="3" fill="#CBD5E1"/><rect x="376" y="132" width="24" height="108" rx="3" fill="#059669"/>
    <text x="360" y="172" text-anchor="middle" font-size="9" fill="#64748B">58%</text><text x="388" y="124" text-anchor="middle" font-size="9" font-weight="600" fill="#047857">82%</text>
    <text x="460" y="268" text-anchor="middle" font-size="10" fill="#64748B">End-to-end</text>
    <rect x="428" y="204" width="24" height="36" rx="3" fill="#CBD5E1"/><rect x="456" y="96" width="24" height="144" rx="3" fill="#D97706"/>
    <text x="440" y="196" text-anchor="middle" font-size="9" fill="#64748B">42%</text><text x="468" y="88" text-anchor="middle" font-size="9" font-weight="600" fill="#92400E">91%</text>
  </g>
  <rect x="380" y="44" width="140" height="36" rx="6" fill="#FAF9F6" stroke="#E8E4DD"/>
  <rect x="392" y="56" width="12" height="12" rx="2" fill="#CBD5E1"/><text x="410" y="66" font-family="Arial,sans-serif" font-size="9" fill="#64748B">Baseline LLM</text>
  <rect x="392" y="72" width="12" height="12" rx="2" fill="#D97706"/><text x="410" y="82" font-family="Arial,sans-serif" font-size="9" fill="#64748B">LaborAid full</text>
</svg>
