<svg xmlns="http://www.w3.org/2000/svg" viewBox="0 0 860 200" fill="none">
  <defs><marker id="arr" markerWidth="8" markerHeight="8" refX="7" refY="4" orient="auto"><path d="M0 0 L8 4 L0 8 Z" fill="#D97706"/></marker></defs>
  <text x="430" y="24" text-anchor="middle" font-family="Arial,sans-serif" font-size="16" font-weight="700" fill="#1C2433">SDAD Scenario Pipeline (5-Stage Loop)</text>
  <g font-family="Arial,sans-serif">
    <rect x="20" y="52" width="140" height="72" rx="8" fill="#FFF" stroke="#E8E4DD"/><text x="90" y="78" text-anchor="middle" font-size="11" font-weight="700" fill="#D97706">1</text><text x="90" y="96" text-anchor="middle" font-size="10" font-weight="600" fill="#1C2433">Intake</text><text x="90" y="112" text-anchor="middle" font-size="9" fill="#64748B">Scenario or NL</text>
    <rect x="188" y="52" width="140" height="72" rx="8" fill="#FFF" stroke="#E8E4DD"/><text x="258" y="78" text-anchor="middle" font-size="11" font-weight="700" fill="#D97706">2</text><text x="258" y="96" text-anchor="middle" font-size="10" font-weight="600" fill="#1C2433">Case build</text><text x="258" y="112" text-anchor="middle" font-size="9" fill="#64748B">ai_snapshot</text>
    <rect x="356" y="52" width="140" height="72" rx="8" fill="#FFF" stroke="#059669" stroke-width="1.5"/><text x="426" y="78" text-anchor="middle" font-size="11" font-weight="700" fill="#059669">3</text><text x="426" y="96" text-anchor="middle" font-size="10" font-weight="600" fill="#1C2433">Evidence</text><text x="426" y="112" text-anchor="middle" font-size="9" fill="#64748B">MICE checklist</text>
    <rect x="524" y="52" width="140" height="72" rx="8" fill="#FFF" stroke="#7C3AED" stroke-width="1.5"/><text x="594" y="78" text-anchor="middle" font-size="11" font-weight="700" fill="#7C3AED">4</text><text x="594" y="96" text-anchor="middle" font-size="10" font-weight="600" fill="#1C2433">Strategy</text><text x="594" y="112" text-anchor="middle" font-size="9" fill="#64748B">Graph-RAG SADG</text>
    <rect x="692" y="52" width="140" height="72" rx="8" fill="#FFF" stroke="#D97706" stroke-width="1.5"/><text x="762" y="78" text-anchor="middle" font-size="11" font-weight="700" fill="#D97706">5</text><text x="762" y="96" text-anchor="middle" font-size="10" font-weight="600" fill="#1C2433">Handoff</text><text x="762" y="112" text-anchor="middle" font-size="9" fill="#64748B">Material pack</text>
  </g>
  <line x1="160" y1="88" x2="188" y2="88" stroke="#D97706" stroke-width="2" marker-end="url(#arr)"/>
  <line x1="328" y1="88" x2="356" y2="88" stroke="#D97706" stroke-width="2" marker-end="url(#arr)"/>
  <line x1="496" y1="88" x2="524" y2="88" stroke="#D97706" stroke-width="2" marker-end="url(#arr)"/>
  <line x1="664" y1="88" x2="692" y2="88" stroke="#D97706" stroke-width="2" marker-end="url(#arr)"/>
  <rect x="20" y="148" width="812" height="40" rx="8" fill="#FAF9F6" stroke="#E8E4DD"/>
  <text x="430" y="173" text-anchor="middle" font-family="Arial,sans-serif" font-size="10" fill="#64748B">Scenarios: wage arrears | probation | maternity | unsigned contract | work injury</text>
</svg>
