<svg xmlns="http://www.w3.org/2000/svg" viewBox="0 0 560 380" fill="none">
  <defs><marker id="arr" markerWidth="8" markerHeight="8" refX="7" refY="4" orient="auto"><path d="M0 0 L8 4 L0 8 Z" fill="#7C3AED"/></marker></defs>
  <text x="280" y="26" text-anchor="middle" font-family="Arial,sans-serif" font-size="16" font-weight="700" fill="#1C2433">Graph-RAG - Legal Knowledge Retrieval</text>
  <rect x="40" y="48" width="140" height="44" rx="8" fill="#FFF" stroke="#D97706"/><text x="110" y="76" text-anchor="middle" font-family="Arial,sans-serif" font-size="10" fill="#1C2433">Cause / scenario ID</text>
  <rect x="380" y="48" width="140" height="44" rx="8" fill="#FFF" stroke="#E8E4DD"/><text x="450" y="76" text-anchor="middle" font-family="Arial,sans-serif" font-size="10" fill="#1C2433">User query</text>
  <line x1="110" y1="92" x2="110" y2="128" stroke="#7C3AED" marker-end="url(#arr)"/>
  <line x1="450" y1="92" x2="450" y2="128" stroke="#7C3AED" marker-end="url(#arr)"/>
  <ellipse cx="110" cy="156" rx="72" ry="28" fill="#F5F3FF" stroke="#7C3AED"/><text x="110" y="160" text-anchor="middle" font-family="Arial,sans-serif" font-size="9" font-weight="600" fill="#7C3AED">Legal graph</text>
  <ellipse cx="450" cy="156" rx="72" ry="28" fill="#FAF9F6" stroke="#E8E4DD"/><text x="450" y="160" text-anchor="middle" font-family="Arial,sans-serif" font-size="9" fill="#1C2433">Chroma vectors</text>
  <line x1="182" y1="156" x2="228" y2="200" stroke="#7C3AED"/><line x1="378" y1="156" x2="332" y2="200" stroke="#7C3AED"/>
  <rect x="200" y="200" width="160" height="48" rx="8" fill="#7C3AED"/><text x="280" y="228" text-anchor="middle" font-family="Arial,sans-serif" font-size="11" font-weight="700" fill="#FFF">Hybrid rank and merge</text>
  <line x1="280" y1="248" x2="280" y2="272" stroke="#7C3AED" marker-end="url(#arr)"/>
  <rect x="160" y="272" width="240" height="44" rx="8" fill="#FFF" stroke="#D97706" stroke-width="1.5"/><text x="280" y="300" text-anchor="middle" font-family="Arial,sans-serif" font-size="10" fill="#1C2433">Statutes | doc types | evidence list</text>
  <rect x="60" y="344" width="160" height="32" rx="6" fill="#FAF9F6" stroke="#E8E4DD"/><text x="140" y="365" text-anchor="middle" font-family="Arial,sans-serif" font-size="10" fill="#7C3AED">Research engine</text>
  <rect x="340" y="344" width="160" height="32" rx="6" fill="#FAF9F6" stroke="#D97706"/><text x="420" y="365" text-anchor="middle" font-family="Arial,sans-serif" font-size="10" fill="#D97706">SAGD docgen</text>
</svg>
