<svg xmlns="http://www.w3.org/2000/svg" viewBox="0 0 880 200" fill="none">
  <defs><marker id="arr" markerWidth="8" markerHeight="8" refX="7" refY="4" orient="auto"><path d="M0 0 L8 4 L0 8 Z" fill="#D97706"/></marker></defs>
  <text x="440" y="24" text-anchor="middle" font-family="Arial,sans-serif" font-size="16" font-weight="700" fill="#1C2433">Demo Chain - case-002 Probation Dismissal</text>
  <g font-family="Arial,sans-serif">
    <rect x="16" y="52" width="120" height="72" rx="8" fill="#FFF" stroke="#E8E4DD"/><text x="76" y="84" text-anchor="middle" font-size="10" font-weight="600" fill="#1C2433">Upload</text><text x="76" y="104" text-anchor="middle" font-size="9" fill="#64748B">Notice + eval</text>
    <rect x="156" y="52" width="120" height="72" rx="8" fill="#FFF" stroke="#059669" stroke-width="1.5"/><text x="216" y="84" text-anchor="middle" font-size="10" font-weight="600" fill="#059669">MICE</text><text x="216" y="104" text-anchor="middle" font-size="9" fill="#64748B">OCR + NER</text>
    <rect x="296" y="52" width="120" height="72" rx="8" fill="#FFF" stroke="#7C3AED" stroke-width="1.5"/><text x="356" y="84" text-anchor="middle" font-size="10" font-weight="600" fill="#7C3AED">Graph-RAG</text><text x="356" y="104" text-anchor="middle" font-size="9" fill="#64748B">Art.39/40</text>
    <rect x="436" y="52" width="120" height="72" rx="8" fill="#FFF" stroke="#D97706" stroke-width="1.5"/><text x="496" y="84" text-anchor="middle" font-size="10" font-weight="600" fill="#D97706">Compensation</text><text x="496" y="104" text-anchor="middle" font-size="9" fill="#64748B">2N / 1N calc</text>
    <rect x="576" y="52" width="120" height="72" rx="8" fill="#FFF" stroke="#E8E4DD"/><text x="636" y="84" text-anchor="middle" font-size="10" font-weight="600" fill="#1C2433">SAGD</text><text x="636" y="104" text-anchor="middle" font-size="9" fill="#64748B">Arbitration app</text>
    <rect x="716" y="52" width="148" height="72" rx="8" fill="#FEF3C7" stroke="#D97706"/><text x="790" y="84" text-anchor="middle" font-size="10" font-weight="600" fill="#92400E">Handoff</text><text x="790" y="104" text-anchor="middle" font-size="9" fill="#64748B">Material pack</text>
  </g>
  <line x1="136" y1="88" x2="156" y2="88" stroke="#D97706" stroke-width="2" marker-end="url(#arr)"/>
  <line x1="276" y1="88" x2="296" y2="88" stroke="#D97706" stroke-width="2" marker-end="url(#arr)"/>
  <line x1="416" y1="88" x2="436" y2="88" stroke="#D97706" stroke-width="2" marker-end="url(#arr)"/>
  <line x1="556" y1="88" x2="576" y2="88" stroke="#D97706" stroke-width="2" marker-end="url(#arr)"/>
  <line x1="696" y1="88" x2="716" y2="88" stroke="#D97706" stroke-width="2" marker-end="url(#arr)"/>
  <rect x="16" y="148" width="848" height="40" rx="8" fill="#FAF9F6" stroke="#E8E4DD"/>
  <text x="440" y="173" text-anchor="middle" font-family="Arial,sans-serif" font-size="10" fill="#64748B">Test data: resources/test/case-002 | Evidence page: MiceConsistencyPanel</text>
</svg>
