<svg xmlns="http://www.w3.org/2000/svg" width="1200" height="760" viewBox="0 0 1200 760">
  <rect width="1200" height="760" fill="#f3f4f6"/>
  <rect x="70" y="40" width="1060" height="680" rx="10" fill="#ffffff" stroke="#d1d5db"/>
  <text x="600" y="95" text-anchor="middle" font-size="34" font-family="Microsoft YaHei, Arial" fill="#111827">??????????</text>
  <text x="110" y="145" font-size="22" font-family="Microsoft YaHei, Arial" fill="#374151">???????????</text>
  <text x="700" y="145" font-size="22" font-family="Microsoft YaHei, Arial" fill="#374151">?????</text>
  <rect x="110" y="180" width="980" height="56" fill="#f9fafb" stroke="#d1d5db"/>
  <text x="160" y="216" font-size="22" font-family="Microsoft YaHei, Arial">??</text>
  <text x="390" y="216" font-size="22" font-family="Microsoft YaHei, Arial">??(?)</text>
  <text x="620" y="216" font-size="22" font-family="Microsoft YaHei, Arial">??(?)</text>
  <text x="850" y="216" font-size="22" font-family="Microsoft YaHei, Arial">??</text>
  <rect x="110" y="236" width="980" height="74" fill="#ffffff" stroke="#e5e7eb"/>
  <text x="160" y="282" font-size="24" font-family="Microsoft YaHei, Arial">2026-01</text>
  <text x="390" y="282" font-size="24" font-family="Microsoft YaHei, Arial">8000.00</text>
  <text x="620" y="282" font-size="24" font-family="Microsoft YaHei, Arial" fill="#dc2626">0.00</text>
  <text x="850" y="282" font-size="24" font-family="Microsoft YaHei, Arial" fill="#dc2626">??</text>
  <rect x="110" y="310" width="980" height="74" fill="#ffffff" stroke="#e5e7eb"/>
  <text x="160" y="356" font-size="24" font-family="Microsoft YaHei, Arial">2026-02</text>
  <text x="390" y="356" font-size="24" font-family="Microsoft YaHei, Arial">8000.00</text>
  <text x="620" y="356" font-size="24" font-family="Microsoft YaHei, Arial" fill="#dc2626">0.00</text>
  <text x="850" y="356" font-size="24" font-family="Microsoft YaHei, Arial" fill="#dc2626">??</text>
  <rect x="110" y="384" width="980" height="74" fill="#ffffff" stroke="#e5e7eb"/>
  <text x="160" y="430" font-size="24" font-family="Microsoft YaHei, Arial">2026-03</text>
  <text x="390" y="430" font-size="24" font-family="Microsoft YaHei, Arial">8000.00</text>
  <text x="620" y="430" font-size="24" font-family="Microsoft YaHei, Arial" fill="#dc2626">0.00</text>
  <text x="850" y="430" font-size="24" font-family="Microsoft YaHei, Arial" fill="#dc2626">??</text>
  <text x="110" y="520" font-size="24" font-family="Microsoft YaHei, Arial">?????24000.00 ?</text>
  <text x="110" y="560" font-size="24" font-family="Microsoft YaHei, Arial" fill="#dc2626">?????0.00 ?</text>
  <text x="110" y="610" font-size="20" font-family="Microsoft YaHei, Arial" fill="#6b7280">???????????  ???2026-04-01</text>
</svg>
